<svg width="24" height="24" viewBox="0 0 24 24" fill="none" xmlns="http://www.w3.org/2000/svg">
<path fill-rule="evenodd" clip-rule="evenodd" d="M6.51752 3.26678C6.66282 3.09089 7.17879 2.72998 8.30232 2.43106C9.34893 2.15259 10.6527 2.00002 12 2.00001C13.3474 1.99999 14.6511 2.15254 15.6977 2.43099C16.8212 2.7299 17.3371 3.09081 17.4824 3.2667C17.4796 3.26329 17.4803 3.26449 17.4838 3.27111C17.5035 3.30746 17.6117 3.50717 17.7215 4.00543C17.8401 4.54431 17.9231 5.25302 17.9659 6.10652C18.0513 7.80966 17.9675 9.8734 17.8146 11.8691C17.5926 14.7663 15.0869 17 12 17C8.91306 17 6.40736 14.7663 6.18539 11.8691C6.03248 9.87335 5.94874 7.80958 6.03413 6.10644C6.07692 5.25293 6.15985 4.54423 6.27855 4.00537C6.38826 3.50727 6.4964 3.30758 6.5161 3.2712C6.5197 3.26455 6.52035 3.26335 6.51752 3.26678ZM4.9756 1.99301C7.17069 -0.664196 16.8293 -0.664458 19.0244 1.99301C19.4223 2.47476 19.676 3.34073 19.8246 4.4358C23.1158 5.02972 24 6.3396 24 8.99997C24 11.7433 23.0598 13.0506 19.5094 13.6177C18.5377 16.8058 15.4848 19 12 19C8.5152 19 5.46233 16.8058 4.49061 13.6177C0.940222 13.0506 0 11.7434 0 8.99997C0 6.33961 0.884176 5.02973 4.17539 4.4358C4.324 3.3407 4.57766 2.47472 4.9756 1.99301ZM4.0162 6.50894C3.62811 6.59841 3.31553 6.69704 3.06348 6.80206C2.51426 7.0309 2.34242 7.24964 2.25002 7.42289C2.12217 7.66258 2 8.10605 2 8.99997C2 9.89388 2.12217 10.3373 2.25002 10.577C2.34242 10.7503 2.51426 10.969 3.06348 11.1979C3.34479 11.3151 3.70151 11.4243 4.15446 11.5218C4.03516 9.82662 3.96685 8.06778 4.0162 6.50894ZM19.8455 11.5218C20.2985 11.4243 20.6552 11.3151 20.9365 11.1979C21.4857 10.969 21.6576 10.7503 21.75 10.577C21.8778 10.3373 22 9.89388 22 8.99997C22 8.10605 21.8778 7.66258 21.75 7.42289C21.6576 7.24964 21.4857 7.0309 20.9365 6.80206C20.6845 6.69704 20.3719 6.59841 19.9838 6.50894C20.0331 8.06779 19.9648 9.82662 19.8455 11.5218Z" fill="#F9F9F9"/>
<path d="M12 19V23H15H9" stroke="#F9F9F9" stroke-width="2" stroke-linecap="round" stroke-linejoin="round"/>
</svg>
