<svg width="16" height="16" viewBox="0 0 16 16" fill="none" xmlns="http://www.w3.org/2000/svg">
<path d="M7.87434 1.26441C8.1454 0.81152 8.5448 1.03216 8.5741 1.55916C8.71927 4.16932 9.06659 11.3811 8.50325 11.8722C8.50067 11.8745 8.50109 11.8741 8.49846 11.8763C8.41449 11.9465 4.91868 14.8639 4.28166 14.3009C3.79912 13.8745 4.47615 11.3275 4.84741 10.0727C4.97086 9.65547 4.82425 9.20287 4.47885 8.93826C3.49798 8.18682 1.625 6.66933 1.625 6.0384C1.625 5.3962 4.2711 5.20444 5.5871 5.14878C6.0197 5.13048 6.3998 4.84769 6.53973 4.43793C6.83475 3.57398 7.37156 2.10444 7.87434 1.26441Z" fill="#00B9AE"/>
<path d="M4.47885 8.93826L5.087 8.14444L4.47885 8.93826ZM8.50325 11.8722L7.84607 11.1185L8.50325 11.8722ZM8.49846 11.8763L9.14005 12.6433L8.49846 11.8763ZM5.5871 5.14878L5.54484 4.14967L5.5871 5.14878ZM6.53973 4.43793L5.59338 4.11477L6.53973 4.43793ZM7.87434 1.26441L7.01629 0.75084L7.87434 1.26441ZM7.57565 1.61469C7.64804 2.91632 7.77026 5.35586 7.80449 7.52609C7.82166 8.61419 7.81632 9.61474 7.77399 10.3643C7.75263 10.7424 7.72326 11.029 7.6893 11.2208C7.67205 11.3183 7.65841 11.3631 7.6554 11.3716C7.6404 11.4141 7.67869 11.2645 7.84607 11.1185L9.16044 12.626C9.39824 12.4186 9.49983 12.1551 9.54156 12.0367C9.59529 11.8844 9.6318 11.7213 9.65868 11.5695C9.71299 11.2627 9.74777 10.8849 9.77081 10.477C9.81725 9.65467 9.82164 8.59705 9.80424 7.49454C9.76937 5.28357 9.64534 2.81216 9.57256 1.50362L7.57565 1.61469ZM7.85688 11.1092C7.82052 11.1396 6.95368 11.8629 6.02806 12.504C5.5593 12.8287 5.11528 13.1042 4.77445 13.2634C4.59903 13.3453 4.5048 13.3704 4.47844 13.3748C4.41603 13.3852 4.67932 13.3178 4.94387 13.5516L3.61944 15.0503C4.04326 15.4248 4.55513 15.3895 4.80616 15.3478C5.09324 15.3001 5.37729 15.1891 5.62049 15.0756C6.11692 14.8438 6.67154 14.4912 7.16685 14.1481C8.16939 13.4537 9.09243 12.6832 9.14005 12.6433L7.85688 11.1092ZM4.94387 13.5516C5.02815 13.6261 5.07409 13.7008 5.09661 13.7453C5.10817 13.7682 5.1152 13.7862 5.11914 13.7975C5.12311 13.8088 5.12471 13.8154 5.12489 13.8162C5.125 13.8166 5.12176 13.8027 5.11884 13.7702C5.11598 13.7385 5.11403 13.6959 5.11427 13.6413C5.1153 13.4101 5.15424 13.0797 5.22795 12.6779C5.37357 11.884 5.62358 10.974 5.80632 10.3564L3.8885 9.78898C3.69998 10.4262 3.42584 11.4171 3.26077 12.317C3.17913 12.7621 3.11609 13.2269 3.11429 13.6324C3.11339 13.834 3.12708 14.0607 3.17951 14.2804C3.22822 14.4845 3.33805 14.8016 3.61944 15.0503L4.94387 13.5516ZM5.087 8.14444C4.60483 7.77505 3.92186 7.23116 3.36688 6.71252C3.08698 6.45094 2.86423 6.21845 2.71898 6.03378C2.64617 5.94121 2.61038 5.88261 2.59675 5.8561C2.57606 5.81586 2.625 5.88883 2.625 6.0384H0.625C0.625 6.34569 0.73247 6.6041 0.818044 6.77055C0.910673 6.95072 1.02887 7.12006 1.14698 7.27023C1.38356 7.57102 1.69036 7.88316 2.00131 8.17376C2.62804 8.75945 3.372 9.35003 3.87071 9.73209L5.087 8.14444ZM2.625 6.0384C2.625 6.33919 2.46061 6.51646 2.40682 6.56443C2.36034 6.60588 2.3505 6.59725 2.43546 6.56273C2.59885 6.49634 2.88246 6.42459 3.27404 6.36051C4.03891 6.23534 4.98074 6.17532 5.62935 6.14788L5.54484 4.14967C4.87746 4.1779 3.83824 4.24158 2.95106 4.38676C2.51661 4.45785 2.05645 4.55793 1.68257 4.70985C1.49889 4.78449 1.27205 4.89664 1.07572 5.07172C0.872083 5.25331 0.625 5.57705 0.625 6.0384H2.625ZM7.48607 4.7611C7.78589 3.8831 8.29228 2.5133 8.73239 1.77797L7.01629 0.75084C6.45084 1.69557 5.88361 3.26486 5.59338 4.11477L7.48607 4.7611ZM5.80632 10.3564C6.0469 9.54331 5.76225 8.66174 5.087 8.14444L3.87071 9.73209C3.87799 9.73766 3.88415 9.74575 3.8878 9.757C3.89148 9.76831 3.8914 9.77919 3.8885 9.78898L5.80632 10.3564ZM7.84607 11.1185C7.84635 11.1183 7.84835 11.1165 7.85115 11.1141C7.8527 11.1128 7.85449 11.1113 7.8565 11.1096C7.85854 11.1079 7.86037 11.1063 7.86191 11.1051C7.86328 11.1039 7.86434 11.103 7.86441 11.103C7.86482 11.1026 7.8639 11.1034 7.86334 11.1039C7.86151 11.1054 7.85937 11.1071 7.85688 11.1092L9.14005 12.6433C9.13887 12.6443 9.13767 12.6453 9.13657 12.6462C9.13638 12.6464 9.13579 12.6469 9.13649 12.6463C9.13687 12.646 9.1382 12.6449 9.13984 12.6435C9.14399 12.6401 9.14815 12.6366 9.15242 12.6329C9.15595 12.6299 9.15886 12.6273 9.16044 12.626L7.84607 11.1185ZM5.62935 6.14788C6.47167 6.11226 7.21222 5.56303 7.48607 4.7611L5.59338 4.11477C5.59063 4.12283 5.58515 4.13121 5.57544 4.13845C5.56565 4.14575 5.55504 4.14924 5.54484 4.14967L5.62935 6.14788ZM9.57256 1.50362C9.5481 1.06379 9.35314 0.426687 8.73942 0.138919C8.40125 -0.0196516 8.01761 -0.0194353 7.678 0.135888C7.36339 0.279774 7.1522 0.523767 7.01629 0.75084L8.73239 1.77797C8.73201 1.7786 8.6724 1.88034 8.50983 1.95469C8.32225 2.04048 8.09112 2.04388 7.89034 1.94973C7.71324 1.86669 7.63231 1.74399 7.60408 1.68993C7.57346 1.6313 7.57486 1.6006 7.57565 1.61469L9.57256 1.50362Z" fill="#00B9AE"/>
</svg>
